HIERARCHY
ROOT Hips
{
	OFFSET -14.64140 90.27770 -84.91600
	CHANNELS 6 Xposition Yposition Zposition Zrotation Xrotation Yrotation
	JOINT Spine
	{
		OFFSET 0.00000 13.20850 -1.60436
		CHANNELS 3 Zrotation Xrotation Yrotation
		JOINT Spine1
		{
			OFFSET 0.00000 8.61716 0.00000
			CHANNELS 3 Zrotation Xrotation Yrotation
			JOINT Spine2
			{
				OFFSET 0.00000 8.61717 0.00000
				CHANNELS 3 Zrotation Xrotation Yrotation
				JOINT Spine3
				{
					OFFSET 0.00000 8.61717 0.00000
					CHANNELS 3 Zrotation Xrotation Yrotation
					JOINT Neck
					{
						OFFSET 0.00000 11.07920 1.10792
						CHANNELS 3 Zrotation Xrotation Yrotation
						JOINT Neck1
						{
							OFFSET 0.00000 7.08032 0.00000
							CHANNELS 3 Zrotation Xrotation Yrotation
							JOINT Head
							{
								OFFSET 0.00000 7.08031 0.00000
								CHANNELS 3 Zrotation Xrotation Yrotation
								End site
								{
									OFFSET 0.00000 0.00000 0.00000
								}
							}
						}
					}
					JOINT RightShoulder
					{
						OFFSET -0.01000 7.91373 5.19711
						CHANNELS 3 Zrotation Xrotation Yrotation
						JOINT RightArm
						{
							OFFSET -18.41580 0.00000 0.00000
							CHANNELS 3 Zrotation Xrotation Yrotation
							JOINT RightForeArm
							{
								OFFSET -29.11090 0.00000 0.00000
								CHANNELS 3 Zrotation Xrotation Yrotation
								JOINT RightHand
								{
									OFFSET -24.65040 0.00000 0.00000
									CHANNELS 3 Zrotation Xrotation Yrotation
									JOINT RightHandThumb1
									{
										OFFSET -5.35114 -0.85590 3.97906
										CHANNELS 3 Zrotation Xrotation Yrotation
										JOINT RightHandThumb2
										{
											OFFSET -4.52789 0.00000 0.00000
											CHANNELS 3 Zrotation Xrotation Yrotation
											JOINT RightHandThumb3
											{
												OFFSET -2.46976 0.00000 0.00000
												CHANNELS 3 Zrotation Xrotation Yrotation
												End site
												{
													OFFSET 0.00000 0.00000 0.00000
												}
											}
										}
									}
									JOINT RightHandIndex1
									{
										OFFSET -14.26970 0.00000 2.88139
										CHANNELS 3 Zrotation Xrotation Yrotation
										JOINT RightHandIndex2
										{
											OFFSET -5.48836 0.00000 0.00000
											CHANNELS 3 Zrotation Xrotation Yrotation
											JOINT RightHandIndex3
											{
												OFFSET -3.01859 0.00000 0.00000
												CHANNELS 3 Zrotation Xrotation Yrotation
												End site
												{
													OFFSET 0.00000 0.00000 0.00000
												}
											}
										}
									}
									JOINT RightHandMiddle1
									{
										OFFSET -14.26970 0.00000 -0.09147
										CHANNELS 3 Zrotation Xrotation Yrotation
										JOINT RightHandMiddle2
										{
											OFFSET -6.17441 0.00000 0.00000
											CHANNELS 3 Zrotation Xrotation Yrotation
											JOINT RightHandMiddle3
											{
												OFFSET -3.56743 0.00000 0.00000
												CHANNELS 3 Zrotation Xrotation Yrotation
												End site
												{
													OFFSET 0.00000 0.00000 0.00000
												}
											}
										}
									}
									JOINT RightHandRing1
									{
										OFFSET -12.69180 0.00000 -3.06433
										CHANNELS 3 Zrotation Xrotation Yrotation
										JOINT RightHandRing2
										{
											OFFSET -5.62556 0.00000 0.00000
											CHANNELS 3 Zrotation Xrotation Yrotation
											JOINT RightHandRing3
											{
												OFFSET -3.56744 0.00000 0.00000
												CHANNELS 3 Zrotation Xrotation Yrotation
												End site
												{
													OFFSET 0.00000 0.00000 0.00000
												}
											}
										}
									}
									JOINT RightHandPinky1
									{
										OFFSET -11.11390 0.00000 -6.03719
										CHANNELS 3 Zrotation Xrotation Yrotation
										JOINT RightHandPinky2
										{
											OFFSET -4.52789 0.00000 0.00000
											CHANNELS 3 Zrotation Xrotation Yrotation
											JOINT RightHandPinky3
											{
												OFFSET -2.46976 0.00000 0.00000
												CHANNELS 3 Zrotation Xrotation Yrotation
												End site
												{
													OFFSET 0.00000 0.00000 0.00000
												}
											}
										}
									}
								}
							}
						}
					}
					JOINT LeftShoulder
					{
						OFFSET 0.01000 7.91373 5.19711
						CHANNELS 3 Zrotation Xrotation Yrotation
						JOINT LeftArm
						{
							OFFSET 18.41580 0.00000 0.00000
							CHANNELS 3 Zrotation Xrotation Yrotation
							JOINT LeftForeArm
							{
								OFFSET 29.11090 0.00000 0.00000
								CHANNELS 3 Zrotation Xrotation Yrotation
								JOINT LeftHand
								{
									OFFSET 24.65040 0.00000 0.00000
									CHANNELS 3 Zrotation Xrotation Yrotation
									JOINT LeftHandThumb1
									{
										OFFSET 5.35114 -0.85590 3.97906
										CHANNELS 3 Zrotation Xrotation Yrotation
										JOINT LeftHandThumb2
										{
											OFFSET 4.52789 0.00000 0.00000
											CHANNELS 3 Zrotation Xrotation Yrotation
											JOINT LeftHandThumb3
											{
												OFFSET 2.46977 0.00000 0.00000
												CHANNELS 3 Zrotation Xrotation Yrotation
												End site
												{
													OFFSET 0.00000 0.00000 0.00000
												}
											}
										}
									}
									JOINT LeftHandIndex1
									{
										OFFSET 14.26970 0.00000 2.88139
										CHANNELS 3 Zrotation Xrotation Yrotation
										JOINT LeftHandIndex2
										{
											OFFSET 5.48836 0.00000 0.00000
											CHANNELS 3 Zrotation Xrotation Yrotation
											JOINT LeftHandIndex3
											{
												OFFSET 3.01859 0.00000 0.00000
												CHANNELS 3 Zrotation Xrotation Yrotation
												End site
												{
													OFFSET 0.00000 0.00000 0.00000
												}
											}
										}
									}
									JOINT LeftHandMiddle1
									{
										OFFSET 14.26970 0.00000 -0.09147
										CHANNELS 3 Zrotation Xrotation Yrotation
										JOINT LeftHandMiddle2
										{
											OFFSET 6.17440 0.00000 0.00000
											CHANNELS 3 Zrotation Xrotation Yrotation
											JOINT LeftHandMiddle3
											{
												OFFSET 3.56744 0.00000 0.00000
												CHANNELS 3 Zrotation Xrotation Yrotation
												End site
												{
													OFFSET 0.00000 0.00000 0.00000
												}
											}
										}
									}
									JOINT LeftHandRing1
									{
										OFFSET 12.69180 0.00000 -3.06433
										CHANNELS 3 Zrotation Xrotation Yrotation
										JOINT LeftHandRing2
										{
											OFFSET 5.62556 0.00000 0.00000
											CHANNELS 3 Zrotation Xrotation Yrotation
											JOINT LeftHandRing3
											{
												OFFSET 3.56744 0.00000 0.00000
												CHANNELS 3 Zrotation Xrotation Yrotation
												End site
												{
													OFFSET 0.00000 0.00000 0.00000
												}
											}
										}
									}
									JOINT LeftHandPinky1
									{
										OFFSET 11.11390 0.00000 -6.03719
										CHANNELS 3 Zrotation Xrotation Yrotation
										JOINT LeftHandPinky2
										{
											OFFSET 4.52789 0.00000 0.00000
											CHANNELS 3 Zrotation Xrotation Yrotation
											JOINT LeftHandPinky3
											{
												OFFSET 2.46976 0.00000 0.00000
												CHANNELS 3 Zrotation Xrotation Yrotation
												End site
												{
													OFFSET 0.00000 0.00000 0.00000
												}
											}
										}
									}
								}
							}
						}
					}
					JOINT pCube4
					{
						OFFSET 0.00000 10.91090 1.10792
						CHANNELS 3 Zrotation Xrotation Yrotation
						End site
						{
							OFFSET 0.00000 0.00000 0.00000
						}
					}
				}
			}
		}
	}
	JOINT RightUpLeg
	{
		OFFSET -9.98441 0.00000 0.00000
		CHANNELS 3 Zrotation Xrotation Yrotation
		JOINT RightLeg
		{
			OFFSET 0.00000 -42.11790 0.00000
			CHANNELS 3 Zrotation Xrotation Yrotation
			JOINT RightFoot
			{
				OFFSET 0.00000 -45.00020 -0.00001
				CHANNELS 3 Zrotation Xrotation Yrotation
				JOINT RightForeFoot
				{
					OFFSET 0.00000 -3.74820 0.00000
					CHANNELS 3 Zrotation Xrotation Yrotation
					JOINT RightToeBase
					{
						OFFSET 0.00000 0.06325 14.43120
						CHANNELS 3 Zrotation Xrotation Yrotation
						End site
						{
							OFFSET 0.00000 0.00000 0.00000
						}
					}
				}
			}
		}
	}
	JOINT LeftUpLeg
	{
		OFFSET 9.98441 0.00000 0.00000
		CHANNELS 3 Zrotation Xrotation Yrotation
		JOINT LeftLeg
		{
			OFFSET 0.00000 -42.11800 0.00000
			CHANNELS 3 Zrotation Xrotation Yrotation
			JOINT LeftFoot
			{
				OFFSET 0.00000 -45.00070 0.00000
				CHANNELS 3 Zrotation Xrotation Yrotation
				JOINT LeftForeFoot
				{
					OFFSET 0.00000 -3.74824 0.00000
					CHANNELS 3 Zrotation Xrotation Yrotation
					JOINT LeftToeBase
					{
						OFFSET 0.00000 0.06325 14.43110
						CHANNELS 3 Zrotation Xrotation Yrotation
						End site
						{
							OFFSET 0.00000 0.00000 0.00000
						}
					}
				}
			}
		}
	}
}
MOTION
Frames: 4
Frame Time: 0.050000
0.01855604950295543 0.028238689061765576 0.016859968643680168 -0.0034381998260101204 -0.01702389407492906 0.012072195233785263 4.93568105958661 2.8891794152485364 -2.1947873933388014 -0.6230390593900096 3.8407268440633877 0.35725931726401594 -0.6823165660865462 -1.6722934752984255 0.5753390615494204 -0.4468799291344499 -0.5878577730121142 -0.2984610881198259 0.2059599703216593 16.643490136618528 -3.0260507439424376 0.351571796961508 -0.6537484468821005 -6.116743045983893 1.244271605663035 -18.181539092344146 -0.5741635893061321 -13.91182006296153 4.273226200387004 -17.826636163020275 82.50031678825258 -11.264019374944857 32.13191665266055 23.917289634851866 10.755361669185094 107.41824679625049 9.290437337251037 -0.25378702931071345 -0.10988811300897669 4.5281323210862245 -0.17216110724987388 -1.5775846307211794 0.02683664101973064 -0.04164737049666287 -56.279181472160204 0.04635599876788732 0.0031140431425539677 -56.27913258944751 -38.721467663556034 -0.01937098047549537 0.01841693616562159 0.0005421478880350493 -0.026126622191815555 -0.037874132601736214 -0.005152234797238863 -0.005420347458206755 0.016087914197074532 -36.65851141066886 0.03254302562846392 0.031526791987059356 0.013686986046519979 -0.023162192458970002 0.031020554895554903 0.007681740158221462 -0.011355721692620672 -0.02788908348598061 -19.723068595482193 -0.019585600244464253 0.04319121176041083 0.018917378569432985 -0.003200058977453587 0.023011066019980292 0.04951125417883999 0.012935358727490643 0.0017671103812390895 24.02742498482438 0.021184371822745008 0.007390449931567209 28.86612646590759 0.035497636643227054 0.018886967112470062 28.879433774061983 0.003598401497139314 -0.02885624410307559 14.653778608973004 3.223642750636088 15.02598340512273 -77.70104432822716 1.2255974423450617 -37.26675392752266 -34.86894428504577 16.163048876373253 -108.29643657818022 -12.841970389181999 3.853127107533411 -6.168438254809868 -0.43588185832444015 0.10590736429899561 -8.127842384055251 0.008681458190373406 0.0033615416203983607 44.522309489384064 0.023046704542678938 -0.040721645121699984 44.542500994006076 12.47664532230896 -0.021301542566966175 -0.005675503435277368 -0.03430054026569326 0.04059029548304662 -0.024532512977570822 0.010291371782510607 -0.026822761571758662 -0.037545562551487194 11.056114976404954 -0.02171520907261344 0.033433532399770774 -0.024579937638946264 -0.034611945349977496 0.0027922873438399644 -0.04688388690696922 0.003645157249494696 0.038435727948960566 4.747709167493489 -0.04149701108768663 0.01851814409678451 -0.019821684800698333 0.02803142134576015 0.0021889251081846505 0.003093621779357972 -0.02754061285368774 -0.014655402203032247 -5.646306475259278 0.04809445140755107 0.014482240416206296 -6.727731054304337 0.019086998852298597 -0.028398268785622766 -6.7297346323568155 0.027245220089512096 -0.023546557151671966 0.03418726556641091 -0.01499192374565973 -0.037778827158134444 8.009456418134484 3.527909299780974 -19.21881314160022 0.017144411810218942 10.428517089646606 -0.03569166700455524 -5.630079238066437 -15.637586451918224 3.210810611534208 -0.04304218590262533 -0.036049908015687755 0.006178214597546628 -0.009762169422538285 4.666852516132473 0.003000732732504513 12.506143364468185 -8.27344467635655 6.851349287879381 -0.021056635278128455 46.39298697137698 0.007391345524145409 -4.36895472098671 -14.781651540473462 -3.8499297395481196 0.030160032448297656 0.0012713126127423847 0.021370298855725008 -0.012802756372382732 -10.75963435755158 -0.010098790381304956 
-0.01792936003931581 0.019670273293471208 -0.002765401783168598 0.04485707122237161 -0.019014091317736743 0.04009981643964025 4.96642882821496 3.0102736210447896 -2.229889829962197 -0.6402657047013105 3.7547904969579333 0.3710208350509925 -0.6563226306235933 -1.6400274822001533 0.4569606506603743 -0.43068285799150413 -0.510221133415889 -0.28998655862035144 0.0842129731904375 16.53660989578417 -2.903504743323635 0.34017926902309326 -0.7050260670441719 -5.840780850391397 1.174955501967473 -18.17282327541471 -0.5631112194221324 -14.092425660840386 4.354553062166667 -17.929351366270794 83.6055682897033 -10.579054620485863 31.05241800111853 26.555545655711622 10.754084173653307 106.73542633131584 9.26217856991639 -0.2607951447922089 -0.5385348336804586 4.5424717835112585 -0.1061861220585596 -1.6278912163708081 0.024190313746201918 0.04550449744059891 -56.21957605796712 0.035105453541104004 0.003920562030286019 -56.19109121739819 -38.764766828795075 0.0023058732851312666 -0.01149771526548056 -0.009722234664873515 0.03476565343141213 0.03986129691570086 0.035495644107979625 -0.010430574273291719 -0.039862795771055094 -36.73794493800909 0.049209058572506896 0.007914931151606379 -0.004080418099639306 -0.02095870245813296 -0.02632102077509156 -0.028925519971606403 0.01756475394168695 0.007412863952614689 -19.787091502838692 0.0031623172964011593 -0.015998780457244247 -0.04894956633034638 -0.03590141575436305 -0.017735852522235068 0.03502640221079204 -0.0015250370876138178 -0.004815765684867241 24.067126270765424 -0.018273919693133956 -0.008350594317428933 28.904628396251816 -0.011007782656770269 0.04226039297643941 28.903564240320733 -0.03807298165077919 -0.03291773262000324 15.01381812791651 3.3115160747233423 14.99844289690719 -78.30256469494792 0.0672111852582857 -37.4342731269077 -41.13952874610112 16.760598607619677 -109.40323785140545 -12.174518382399294 3.2217336393493237 -5.178810896333415 -0.4870166646503447 0.09157005582451877 -8.137793321975098 -0.042685975786971996 -0.014741006203566134 44.59866280356692 0.014642618791014311 -0.03678393249312402 44.54611814646337 12.412565465257238 -0.016332777295592172 0.014314999421851868 -0.03344559124864668 -0.024331019912307843 -0.014652842849100177 -0.005770988895082491 0.03272018851883687 -0.029435525653255946 11.12987518493754 -0.031736709384508247 -0.01693708536854965 0.016095529553542667 -0.04687040950400384 -0.015472731681728283 -0.013460446385223052 0.0006845868521854346 0.0280965431708213 4.791695455067095 -0.010167427937575942 -0.016758784646688518 -0.022189737897902993 0.02410955348661321 0.04302632003566315 0.04760414998796904 -0.020135318917141785 0.001051246737823411 -5.589346182002095 -0.010524624994842725 -0.006598826598378315 -6.68263657286007 0.046387576709421036 -0.03993039575984603 -6.714368809199624 0.0035224894240739654 -0.03793425339981478 -0.0237215145293546 -0.035280886915552985 -0.00799513967169442 8.00950642134341 3.485843541742422 -19.19853460046163 0.011709723648754174 10.3754123227269 -0.003508652905410064 -5.576735741702627 -15.656043725346041 3.155912841531537 0.028538314526980937 -0.013117037976417719 0.048918050608476975 0.034594099159093464 4.647963955786084 0.024481711380301183 12.456194492031278 -8.217111199969645 6.879521123680833 0.038552011782954296 46.40231986041729 -0.006254967437215304 -4.372472958146974 -14.715827963102072 -3.7933851592256684 0.004510684065541044 -0.0420162171351609 -0.013369064607149733 0.014204986948336273 -10.755910495958302 -0.0021377399761075004 
0.0301291862519466 -0.019782841816693698 -0.03989566186238813 -0.00692287490118909 -0.011660923859860403 -0.01892489403748024 5.022603837681561 3.0350609904928034 -2.19689471401872 -0.6853685647192752 3.730228392808298 0.32833316420371483 -0.631709992950262 -1.635617440525148 0.3582854130627474 -0.36873720913716945 -0.5002786516142446 -0.30488357433171714 0.0922542612262506 16.41237629931516 -2.9149211839519342 0.30930256089214875 -0.6770504025313772 -5.772332792594955 1.246900380017448 -18.244037677934628 -0.5849002868959631 -14.416771961893701 4.410560165474969 -17.96525085340661 84.69015438772632 -10.8927899001356 30.580044460799883 28.341787832041142 10.459444328286525 105.68293465096536 9.265789006829946 -0.24314645734397655 -0.9622120443612987 4.4794869691386445 -0.10119660380245969 -1.6151753306171137 -0.03969214143165223 -0.026331009608329244 -56.211496823249185 -0.0355325961576214 0.02695349543714063 -56.20242980382196 -38.77359563733949 -0.010530373590714789 -0.04704710716018544 0.0421517442987124 -0.006404398071891663 -0.04521809624154765 0.04405744091847454 -0.04433423542245229 -0.03497755523308982 -36.71804180442988 0.01480691186025624 -0.013009213419534043 -0.005436683571411551 0.037867553079519015 0.0018236687322181913 -0.041042637169731444 -0.029446150136703052 -0.0014818002753086731 -19.721603673585452 -0.012460874482941005 -0.02691810728059578 -0.04718548838558008 0.013774386301675698 -0.0414678152446313 -0.047347008801014924 -0.012179681299013779 -0.026073628073899385 24.102071686075917 0.011849119175179874 -0.047964291306833655 28.859982709300247 0.039516927116019944 0.023864975604196054 28.899487200951164 -0.01774747160079382 0.0075868645286824845 15.22039867464329 3.3005430233378408 14.978903195324559 -78.7130283200612 -0.8498099979822611 -36.78697733724922 -46.12275773300848 16.51938007812838 -109.93401014237024 -11.609253933948038 2.6945148555064136 -4.251969900832394 -0.46202077676082487 0.06543657520314058 -8.099853931495181 0.03029166327412249 -0.03236815587966526 44.55670275983025 0.01715055611032898 -0.006791391799753771 44.60320100034868 12.504515053549731 -0.007449838614393593 0.0287903727330965 -0.04251168279297006 0.027885768296065365 0.01443257123569785 -0.009531544078364209 -0.016084409427714306 0.01266349201750955 11.088305964908313 -0.008855580410918336 0.0115390978983993 -0.0005889531241820283 -0.0180536448114493 -0.048463880351381036 0.03680397954991137 -0.022224640038146688 0.002633976238456316 4.802329802142448 0.028033806271287244 0.015010952715509207 0.03625393833537208 0.027361457595796834 -0.017601741122326778 0.005678241760954877 -0.045474661811014824 0.0003659804503966344 -5.600118763709147 0.0065775155536443915 -0.001937750846533236 -6.742515720631096 -0.030101026843604075 -0.01951348214837297 -6.680969182673925 -0.0027659566270447277 0.026287151889246838 0.013959010541147883 -0.002940082045816289 -0.012119152005255306 8.085920864287093 3.539782758744118 -19.22986018188458 0.004641645550840446 10.370544618436194 -0.00244518943861239 -5.648536122085339 -15.65274342461212 3.2047684505837553 -0.015332136738652816 0.03948332306064749 0.0264898164850338 0.03526286386640712 4.695015832420967 -0.008552185824808151 12.442749213969423 -8.251949316609322 6.865928295983072 -0.02016231452435112 46.38016074646122 0.002618292084013697 -4.343915696171041 -14.742650089670496 -3.8429748576172504 -0.004423036049495345 -0.03903501466984032 0.026401759790097873 0.02520939767604013 -10.718718356710346 0.0048265667547822645 
0.009212521890100573 -0.03492678446586228 -0.03742901455594063 0.025356978305185175 0.018479622196078797 -0.04217087090435229 4.907126195399963 3.140972173546555 -2.185405472989565 -0.6809836671420045 3.7148628601076013 0.34907617189161466 -0.6671405859759432 -1.543319696963586 0.3569876201180836 -0.4537610594398109 -0.4013544893099559 -0.2812995454121336 0.09955150012722674 16.02647435205063 -2.9140369104130093 0.2913377370822123 -0.7115868677996967 -5.937882326203786 1.204033845468876 -18.392100222747597 -0.5583512145188502 -14.335661121266124 4.433384856393618 -17.908531547423564 85.76526898686579 -10.736431458876716 30.183930484391134 29.29961335056366 9.87734195815125 104.93117457961388 9.293628718141928 -0.31082202714994345 -1.4496470828960561 4.574022311564044 -0.11393498153956416 -1.5916387227676847 -0.007006434813972357 0.019891379323674782 -56.20141328118669 -0.03293717508371543 0.023891008334838752 -56.20298572844492 -38.77063186218635 0.022776461417967356 -0.009711623427827672 -0.018914892028038945 -0.03532430110120648 -0.0269668103605838 0.003009824164282148 -0.02483037623733857 -0.00714497779298145 -36.66274392436993 -0.043277219663609104 -0.0004062836769149576 -0.042995142587003585 0.029256858805398998 -0.03279042979830368 0.008120178625510135 -0.016903512595411688 -0.01324827791460143 -19.791918214901546 -0.017905919793476204 -0.007091970789137233 0.010263524386071794 -0.010209327499598417 0.0006354827568409556 0.0027041901889844865 -0.013055794323176861 0.032780370069922696 24.078677601736153 0.005162098068279991 0.039793918563012134 28.841075773925464 -0.011875917949487893 -0.01667758818773852 28.880789658706128 0.02889573055994767 0.022827724900255333 15.1489270596735 3.268251800666128 14.853393652605865 -79.10762482837713 -1.2777628115603856 -35.74547721664253 -50.258981974876384 15.879581228848199 -110.05550603491113 -10.85739479116441 2.1027079773233877 -3.403205309484722 -0.45095066065960915 0.057073234529723585 -8.090619579709301 -0.01370681913607039 0.04872652762945977 44.570783325495164 -0.03239632986027893 -0.024161042511855885 44.59539866328119 12.433924493483012 0.0006985995874372774 0.019176823241248576 0.038600266085638484 0.04795400018547498 -0.017400156198522067 -0.02022016386660584 -0.009926109541055486 -0.020254086172742315 11.128868837138626 -0.04333726404419025 0.002641427244186343 0.0422612025435501 -0.03567053749434069 0.03519093898086726 0.03299640805544552 0.008660833649728153 0.039931091794897546 4.757690888845519 -0.042554997240213194 0.037582477139402555 -0.0030128070896876438 0.021063223957411187 0.025253035362002855 -0.04460424827108406 -0.022262830954493967 0.043221468519794935 -5.602260494825161 -0.04663661637092763 -0.02724379737964874 -6.742932939976645 -0.0447690039716028 -0.02104335749979369 -6.717336158670068 -0.02696967303238611 -0.022744132954502 0.007403812003218486 0.01595760994221889 -0.03792160762874531 8.02192883289775 3.521026558463853 -19.245413350854534 -0.03622657161314765 10.391998324867616 0.05315060087291003 -5.580108955479109 -15.627002455920563 3.202627304803522 0.01752245398042269 0.001006497468840729 -0.0014263794342983464 -0.012144780550859746 4.715838378280623 -0.025565351520723662 12.436300042472292 -8.266652267606322 6.926719569488942 -0.022018766257041248 46.345891102264744 0.00038956288697799884 -4.335365661822438 -14.70184561066877 -3.789048610363251 -0.03539483965789614 -0.027993500951671697 0.04805722523499573 -0.04848287003894293 -10.697468536282761 -0.027284757581026182 
